<?xml version="1.0" encoding="utf-8"?>

<!-- Uploaded to: SVG Repo, www.svgrepo.com, Generator: SVG Repo Mixer Tools -->
<svg version="1.1" id="Icons" xmlns="http://www.w3.org/2000/svg" xmlns:xlink="http://www.w3.org/1999/xlink" 
	 viewBox="0 0 32 32" xml:space="preserve">
<style type="text/css">
	.st0{fill:none;stroke:#000000;stroke-width:2;stroke-linecap:round;stroke-linejoin:round;stroke-miterlimit:10;}
	.st1{fill:none;stroke:#000000;stroke-width:2;stroke-linejoin:round;stroke-miterlimit:10;}
</style>
<circle class="st0" cx="24" cy="23" r="7"/>
<line class="st0" x1="24" y1="19" x2="24" y2="23"/>
<line class="st0" x1="24" y1="23" x2="27" y2="23"/>
<path class="st0" d="M12,26H6v2c0,1.1,0.9,2,2,2h2c1.1,0,2-0.9,2-2V26z"/>
<line class="st0" x1="8" y1="21" x2="12" y2="22"/>
<polyline class="st0" points="27,9 31,11 31,16 "/>
<polyline class="st0" points="5,9 1,11 1,16 "/>
<path class="st0" d="M17.7,26H7c-1.1,0-2-0.9-2-2V7c0-2.2,1.8-4,4-4h14c2.2,0,4,1.8,4,4v9.7"/>
<path class="st0" d="M5,16L5,16c4.6,1.7,9.5,2.3,14.4,1.8"/>
</svg>